<svg width="22" height="27" viewBox="0 0 22 27" fill="none" xmlns="http://www.w3.org/2000/svg">
<path d="M17.7333 25.575C16.4267 26.9604 15 26.7417 13.6267 26.0854C12.1733 25.4146 10.84 25.3854 9.30668 26.0854C7.38668 26.9896 6.37335 26.7271 5.22668 25.575C-1.27998 18.2396 -0.319984 7.06875 7.06668 6.66042C8.86668 6.7625 10.12 7.73958 11.1733 7.82708C12.7467 7.47708 14.2533 6.47083 15.9333 6.60208C17.9467 6.77708 19.4667 7.65208 20.4667 9.22708C16.3067 11.9542 17.2933 17.9479 21.1067 19.625C20.3467 21.8125 19.36 23.9854 17.72 25.5896L17.7333 25.575ZM11.04 6.57292C10.84 3.32083 13.2533 0.6375 16.0267 0.375C16.4134 4.1375 12.9067 6.9375 11.04 6.57292Z" fill="black"/>
</svg>
